<svg width="60" height="60" viewBox="0 0 60 60" fill="none" xmlns="http://www.w3.org/2000/svg">
<rect width="60" height="60" rx="30" fill="white"/>
<path d="M40.2 20.4H19.8C18.8057 20.4 18 21.2057 18 22.2C18 23.1943 18.8057 24 19.8 24H40.2C41.1943 24 42 23.1943 42 22.2C42 21.2057 41.1943 20.4 40.2 20.4Z" fill="black"/>
<path d="M36.7998 27.6001H19.8C18.8057 27.6001 18 28.4058 18 29.4001C18 30.3944 18.8057 31.2001 19.8 31.2001H36.7998C37.7941 31.2001 38.5998 30.3944 38.5998 29.4001C38.5998 28.4058 37.7941 27.6001 36.7998 27.6001Z" fill="black"/>
<path d="M30 34.8001H19.8C18.8057 34.8001 18 35.6057 18 36.6001C18 37.5944 18.8057 38.4001 19.8 38.4001H30C30.9943 38.4001 31.8 37.5944 31.8 36.6001C31.8 35.6057 30.9943 34.8001 30 34.8001Z" fill="black"/>
</svg>
